PathFileType	4	(X/Y/Z)	D:\TRACE\spotREDO_2-26-24\spot_baseline_1-platform.trc
DataRate	CameraRate	NumFrames	NumMarkers	Units	OrigDataRate	OrigDataStartFrame	OrigNumFrames
100.00	100.00	      62	5	mm	100.00	4376	      7000
Frame#	Time	Left_Front			Right_Front			Left_Aft			Right_Aft			Post			
		X1	Y1	Z1	X2	Y2	Z2	X3	Y3	Z3	X4	Y4	Z4	X5	Y5	Z5	

4376	43.750	-696.95435	-3.89130	-575.56769	718.22375	4.87868	-490.77441	-768.18243	4.73450	643.55878	801.21741	11.33908	647.78821	4.45344	741.38519	-982.81738	
4377	43.760	-696.97217	-3.89646	-575.60767	718.17877	4.86964	-490.80151	-768.15558	4.75041	643.53613	801.19690	11.36512	647.77771	4.37351	741.39313	-982.79608	
4378	43.770	-696.95001	-3.92684	-575.61609	718.18213	4.89187	-490.74722	-768.17859	4.75882	643.56146	801.28534	11.44804	647.79150	4.43855	741.35107	-982.85120	
4379	43.780	-696.96796	-3.89035	-575.61096	718.17853	4.92368	-490.78665	-768.17151	4.82425	643.58942	801.26892	11.44900	647.79059	4.48929	741.38550	-982.86462	
4380	43.790	-696.78870	-3.99070	-575.82068	718.11017	5.18768	-490.93411	-768.03448	4.93390	643.67249	801.30310	11.43595	647.79449	4.46235	741.39435	-982.90009	
4381	43.800	-697.00446	-3.85492	-575.60504	718.15247	5.20056	-490.93835	-768.16071	4.79942	643.58453	801.24988	11.43448	647.83191	4.45746	741.39874	-982.94482	
4382	43.810	-696.96814	-3.87446	-575.58484	718.21277	4.89490	-490.77576	-768.15381	4.70985	643.55652	801.18341	11.38111	647.80768	4.44496	741.38019	-982.97919	
4383	43.820	-696.99023	-3.87199	-575.61322	718.19476	4.87712	-490.76904	-768.17255	4.75203	643.55914	801.17053	11.14144	647.48358	4.44675	741.35693	-982.99854	
4384	43.830	-696.79156	-4.04530	-575.81335	718.22638	4.90791	-490.82025	-768.13135	4.75948	643.55566	801.32214	11.18305	647.52454	4.46502	741.38513	-982.95837	
4385	43.840	-696.95544	-3.89594	-575.61926	718.26251	4.92341	-490.73328	-768.16577	4.77737	643.59442	801.33789	11.42110	647.82599	4.48333	741.38373	-982.89679	
4386	43.850	-696.97919	-3.88040	-575.60504	718.27203	4.92295	-490.73117	-768.16766	4.77219	643.60205	801.32300	11.15516	647.51013	4.46134	741.41443	-982.85242	
4387	43.860	-696.74249	-4.17379	-575.62256	718.11530	5.13085	-490.94489	-768.17780	4.82289	643.58508	801.24750	11.36784	647.76385	4.41997	741.41266	-982.78925	
4388	43.870	-696.74579	-4.12441	-575.67755	718.17688	4.86359	-490.83762	-768.20447	4.77632	643.58911	801.24591	11.20440	647.51111	4.35382	741.39795	-982.75659	
4389	43.880	-696.79004	-4.02286	-575.67987	718.18158	4.88869	-490.79694	-768.17212	4.76841	643.57379	801.23260	11.13855	647.51343	4.35640	741.40857	-982.72479	
4390	43.890	-696.84491	-4.00362	-575.63269	718.25427	4.91642	-490.79086	-768.18207	4.81259	643.52979	801.31561	11.43075	647.82422	4.38616	741.41254	-982.74713	
4391	43.900	-696.81995	-4.00268	-575.65424	718.25635	4.95392	-490.71780	-768.19409	4.84152	643.52295	801.35223	11.41753	647.79645	4.43456	741.43811	-982.74493	
4392	43.910	-696.83997	-4.00963	-575.59937	718.22870	4.94185	-490.73553	-768.22913	4.85630	643.58331	801.29590	11.09113	647.47809	4.39897	741.37634	-982.80432	
4393	43.920	-696.84601	-4.01079	-575.65240	718.07745	5.16823	-491.00485	-768.25031	4.82845	643.52960	801.28210	11.06298	647.43311	4.45537	741.36615	-982.87964	
4394	43.930	-696.83203	-3.99236	-575.65515	718.03546	5.08449	-490.94342	-768.29535	4.85449	643.50726	801.20294	11.13071	647.54376	4.43715	741.35388	-982.92920	
4395	43.940	-696.80939	-4.00568	-575.65680	718.17902	4.91699	-490.79056	-768.28857	4.90606	643.51019	801.28052	11.17946	647.53760	4.44386	741.36230	-982.93451	
4396	43.950	-696.86053	-3.97200	-575.63562	718.08685	5.16146	-490.95383	-768.35132	5.00251	643.58722	801.29962	11.24074	647.52466	4.48990	741.36713	-982.99017	
4397	43.960	-696.84985	-3.97063	-575.64886	718.23737	4.96689	-490.78751	-768.03705	4.95189	643.57117	801.21912	11.39735	647.76392	4.51824	741.35278	-982.96631	
4398	43.970	-696.83728	-4.02189	-575.64844	718.21918	4.92742	-490.76093	-768.15375	4.77889	643.44366	801.26538	11.17538	647.51056	4.46897	741.31873	-982.92853	
4399	43.980	-696.79608	-4.04863	-575.66376	718.19385	4.85854	-490.79404	-768.15485	4.78577	643.46136	801.29443	11.43689	647.81537	4.44058	741.32263	-982.89746	
4400	43.990	-696.79443	-4.04339	-575.63959	718.04181	5.07815	-490.95972	-768.13092	4.74425	643.45190	801.24493	11.39083	647.80365	4.47849	741.33496	-982.88647	
4401	44.000	-696.78467	-4.01199	-575.65173	718.07483	5.14907	-491.03958	-768.10455	4.77455	643.44006	801.32440	11.43812	647.83997	4.45109	741.39685	-982.81366	
4402	44.010	-696.84088	-3.98843	-575.66089	718.10529	5.19677	-490.94928	-768.00861	4.95713	643.57532	801.22864	11.37604	647.79822	4.40203	741.43347	-982.75958	
4403	44.020	-696.81506	-3.95783	-575.66058	718.24316	4.91948	-490.72791	-767.99854	4.63319	643.47565	801.13928	11.36806	647.76001	4.40503	741.43793	-982.77338	
4404	44.030	-696.86731	-3.94172	-575.65070	718.18445	4.92594	-490.78094	-768.06470	4.63844	643.49530	801.10663	11.30335	647.81519	4.38383	741.45892	-982.74011	
4405	44.040	-696.85297	-3.95873	-575.66821	718.23096	4.89363	-490.73816	-768.07037	4.66159	643.45587	801.24982	11.38297	647.79901	4.39113	741.42554	-982.80133	
4406	44.050	-696.82019	-3.97339	-575.66827	718.10577	5.08137	-490.91852	-768.13470	4.73981	643.45685	801.27228	11.42734	647.82184	4.45682	741.38086	-982.85541	
4407	44.060	-696.83789	-3.98433	-575.67981	718.24762	4.90053	-490.75464	-768.16705	4.80207	643.49426	801.31519	11.42816	647.79608	4.48769	741.33752	-982.87659	
4408	44.070	-696.82440	-3.95333	-575.65833	718.16748	5.14105	-490.93930	-768.16449	4.84465	643.54358	801.25854	11.41403	647.80347	4.45902	741.35284	-982.87933	
4409	44.080	-696.86816	-3.95361	-575.66058	718.24097	4.91335	-490.78201	-768.14093	4.79340	643.54962	801.21802	11.37887	647.79767	4.47384	741.37018	-982.90948	
4410	44.090	-696.85028	-3.94560	-575.69397	718.23633	4.88482	-490.75800	-768.17255	4.75453	643.54816	801.25391	11.14151	647.52289	4.49407	741.31763	-982.95697	
4411	44.100	-696.88660	-3.92470	-575.67749	718.16199	4.90674	-490.81497	-768.13641	4.75454	643.57605	801.19531	11.39854	647.83258	4.48637	741.36700	-982.94391	
4412	44.110	-696.84589	-3.91767	-575.68335	718.19696	4.88635	-490.80615	-768.14203	4.74628	643.56311	801.20752	11.36827	647.80640	4.51744	741.36731	-982.97461	
4413	44.120	-696.87665	-3.87647	-575.67603	718.23651	4.92731	-490.77228	-768.13123	4.77381	643.53253	801.26703	11.43005	647.84375	4.48147	741.41888	-982.89050	
4414	44.130	-696.87927	-3.90634	-575.67987	718.28998	4.97422	-490.73770	-768.17975	4.79719	643.56049	801.36371	11.11108	647.49988	4.47705	741.38965	-982.87415	
4415	44.140	-696.84845	-3.95479	-575.66199	718.25580	4.92530	-490.74860	-768.15637	4.74420	643.60516	801.31464	11.16044	647.53424	4.47454	741.35443	-982.83551	
4416	44.150	-696.86115	-3.92586	-575.64777	718.07550	5.05850	-490.96939	-768.17651	4.74966	643.58344	801.23315	11.37064	647.81696	4.43015	741.35388	-982.79395	
4417	44.160	-696.85852	-3.90748	-575.66986	718.18585	4.84556	-490.76471	-768.12897	4.75386	643.58154	801.25922	11.10566	647.51917	4.39643	741.38171	-982.78223	
4418	44.170	-696.87042	-3.89870	-575.67810	718.04681	5.15050	-491.00046	-768.14856	4.78165	643.56055	801.21594	11.40207	647.78656	4.39313	741.41467	-982.80560	
4419	44.180	-696.89783	-3.85290	-575.69293	718.20917	4.92099	-490.75739	-768.13037	4.80279	643.59235	801.23138	11.42814	647.79712	4.36727	741.40515	-982.78717	
4420	44.190	-696.86920	-3.92959	-575.68561	718.22937	4.93228	-490.76852	-768.14941	4.81630	643.60571	801.31714	11.43284	647.81134	4.47209	741.36865	-982.84088	
4421	44.200	-696.87836	-3.90705	-575.65228	718.23431	4.91190	-490.77292	-768.13177	4.77517	643.59338	801.16327	11.34816	647.81616	4.44529	741.36517	-982.88342	
4422	44.210	-696.86780	-3.89728	-575.68378	718.23999	5.45113	-490.94931	-768.12543	4.72785	643.57935	801.36053	11.46790	647.83405	4.52133	741.33496	-982.92432	
4423	44.220	-696.89630	-3.88041	-575.67462	718.15851	5.45019	-491.00455	-768.11981	4.76218	643.57178	801.32867	11.12870	647.54303	4.44691	741.35724	-982.95038	
4424	44.230	-696.87396	-3.87645	-575.68073	718.36670	5.20945	-490.78857	-768.18994	4.82088	643.57690	801.28815	11.41173	647.81799	4.49642	741.38611	-982.95789	
4425	44.240	-696.89838	-3.85199	-575.66992	718.37433	5.20836	-490.80606	-768.16980	4.80475	643.59497	801.22821	11.36690	647.81122	4.48091	741.38074	-982.94489	
4426	44.250	-696.86908	-3.90463	-575.67798	718.20575	5.43458	-490.86584	-768.16260	4.81415	643.56360	801.25812	11.38038	647.80707	4.46754	741.37842	-982.93518	
4427	44.260	-696.89758	-3.90652	-575.67743	718.18719	5.27206	-490.88867	-768.18677	4.79090	643.54462	801.17133	11.38085	647.83099	4.46741	741.33807	-982.83862	
4428	44.270	-696.88361	-3.93275	-575.66968	718.34198	5.03680	-490.72385	-768.15082	4.76461	643.55365	801.27710	11.40160	647.80829	4.45883	741.34424	-982.85437	
4429	44.280	-696.86298	-3.94647	-575.69202	718.29248	5.23555	-490.83926	-768.11298	4.76858	643.56152	801.30414	11.42343	647.80994	4.43408	741.36121	-982.78839	
4430	44.290	-696.83698	-3.91235	-575.68457	718.39526	5.06670	-490.67609	-768.17145	4.78652	643.57684	801.25854	11.38726	647.81494	4.45797	741.37988	-982.80292	
4431	44.300	-696.87787	-3.88381	-575.66083	718.26392	5.29025	-490.80072	-768.13513	4.77762	643.58759	801.32813	11.44044	647.83612	4.44236	741.38940	-982.82959	
4432	44.310	-696.88214	-3.89049	-575.67670	718.26715	5.22084	-490.81732	-768.15149	4.78163	643.60864	801.22565	11.35453	647.82239	4.47641	741.37921	-982.81702	
4433	44.320	-696.88013	-3.86927	-575.68372	718.31891	5.05964	-490.75424	-768.15332	4.76633	643.58679	801.20099	11.33506	647.81171	4.45784	741.37787	-982.87445	
4434	44.330	-696.91919	-3.87001	-575.66022	718.27448	5.00769	-490.76947	-768.15186	4.75620	643.57190	801.21869	11.39182	647.80359	4.41969	741.40802	-982.87512	
4435	44.340	-696.88739	-3.87085	-575.66913	718.23602	5.01089	-490.81512	-768.16418	4.76968	643.58057	801.28674	11.43679	647.79199	4.47069	741.41211	-982.85858	
4436	44.350	-696.90216	-3.85848	-575.66388	718.18726	5.20200	-490.87445	-768.16986	4.79600	643.60309	801.28424	11.40193	647.83960	4.44110	741.36005	-982.91516	
4437	44.360	-696.86951	-3.90580	-575.67987	718.31494	5.00522	-490.76556	-768.16040	4.79173	643.58429	801.33417	11.42711	647.82758	4.47213	741.34515	-982.87067	
